<?xml version="1.0" standalone="no"?>
<!DOCTYPE svg PUBLIC "-//W3C//DTD SVG 20010904//EN"
 "http://www.w3.org/TR/2001/REC-SVG-20010904/DTD/svg10.dtd">
<svg version="1.0" xmlns="http://www.w3.org/2000/svg"
 width="1024.000000pt" height="1024.000000pt" viewBox="0 0 1024.000000 1024.000000"
 preserveAspectRatio="xMidYMid meet">

<g transform="translate(0.000000,1024.000000) scale(0.100000,-0.100000)"
fill="#000000" stroke="none">
<path d="M1230 10233 c8 -3 23 -14 34 -24 11 -10 36 -21 55 -25 56 -9 70 -14
86 -31 9 -8 27 -15 40 -15 16 0 32 -12 47 -34 13 -19 26 -34 29 -34 4 0 10
-10 13 -22 3 -13 24 -36 46 -52 27 -20 36 -32 28 -37 -9 -6 -9 -14 2 -34 18
-33 64 -85 76 -85 5 0 15 -9 22 -20 7 -12 18 -20 25 -19 17 3 61 -16 75 -34 7
-8 10 -21 7 -29 -10 -25 52 -55 107 -51 32 2 51 -2 62 -12 8 -8 17 -11 20 -6
7 10 31 9 42 -2 4 -4 17 -4 30 -1 15 4 29 0 39 -10 9 -9 23 -16 31 -16 7 0 16
-11 20 -25 3 -14 9 -25 13 -25 3 0 12 -14 20 -32 13 -28 12 -32 -4 -45 -23
-16 -57 -17 -72 -2 -17 17 -29 -38 -14 -62 6 -10 11 -25 11 -33 0 -8 5 -18 12
-22 7 -5 9 -2 6 7 -11 27 34 19 62 -12 32 -34 50 -37 57 -10 3 13 10 18 21 14
12 -5 14 -2 9 11 -4 10 -3 15 3 11 6 -3 10 -1 10 5 0 6 12 15 28 21 25 10 26
12 10 23 -27 20 -22 29 11 23 19 -4 31 -2 34 6 5 15 146 18 165 4 6 -5 12 -6
12 -1 0 4 21 -13 48 -38 30 -30 62 -50 90 -58 58 -15 135 -49 144 -63 5 -8 13
-8 30 -1 26 12 107 12 125 1 7 -4 33 -8 58 -9 25 0 48 -4 51 -9 3 -5 11 -9 17
-9 7 0 6 4 -3 10 -12 8 -10 10 8 10 18 0 23 -5 20 -22 -2 -13 2 -22 7 -22 6 1
24 5 42 9 25 5 34 2 42 -13 7 -14 17 -18 31 -15 11 3 18 9 15 13 -3 5 -1 11 5
15 5 3 10 -2 10 -12 0 -11 4 -23 9 -28 6 -6 4 -18 -7 -33 -14 -18 -30 -24 -76
-27 -43 -4 -65 -10 -79 -26 -12 -12 -22 -17 -26 -11 -8 14 -87 8 -106 -8 -10
-8 -15 -9 -15 -1 0 7 -7 7 -25 -1 -18 -8 -25 -19 -25 -38 0 -35 14 -46 68 -53
23 -3 50 -11 58 -18 9 -7 28 -13 44 -13 16 -1 32 -4 36 -8 13 -13 51 -9 64 7
7 8 18 15 25 15 16 0 55 34 55 49 0 6 -7 11 -15 11 -8 0 -19 10 -26 21 -9 17
-8 25 5 37 15 15 16 14 16 -13 0 -22 3 -26 12 -17 7 7 17 8 28 2 11 -6 30 -6
49 0 20 5 42 5 57 0 13 -5 24 -6 24 -2 0 4 8 8 18 9 22 2 100 19 131 29 17 5
22 4 17 -4 -4 -7 2 -16 17 -21 34 -13 41 -50 15 -78 -12 -13 -17 -23 -11 -23
6 0 8 -11 5 -25 -2 -14 -11 -25 -18 -25 -8 0 -14 -7 -14 -16 0 -8 4 -12 10 -9
6 3 7 -1 4 -9 -3 -9 -12 -16 -20 -16 -8 0 -14 -6 -14 -13 0 -21 -41 -36 -90
-33 -82 5 -88 6 -102 19 -13 12 -70 18 -62 6 2 -4 -3 -10 -12 -13 -9 -3 -12
-11 -8 -18 5 -8 0 -7 -11 2 -10 8 -16 10 -12 4 14 -24 -30 -22 -48 2 -13 17
-22 21 -33 15 -9 -5 -25 -6 -36 -2 -12 4 -37 2 -56 -5 -19 -7 -30 -13 -25 -14
6 -1 1 -5 -10 -10 -18 -8 -18 -9 -2 -9 10 -1 15 -5 12 -11 -3 -5 0 -10 7 -11
7 0 4 -4 -7 -9 -17 -7 -17 -9 -2 -9 22 -1 22 -20 1 -28 -16 -6 -15 -7 0 -19
15 -10 11 -12 -24 -16 -22 -2 -40 0 -40 4 0 5 -9 8 -20 8 -11 0 -20 -5 -20
-10 0 -6 -3 -9 -7 -8 -5 0 -16 -2 -26 -7 -11 -4 -28 -2 -42 5 -19 10 -28 10
-39 1 -22 -18 -54 -21 -84 -8 -32 15 -79 57 -63 57 6 0 11 5 11 10 0 6 -7 10
-15 10 -14 0 -19 -12 -16 -32 2 -11 -6 -10 -39 7 -18 9 -31 11 -35 5 -3 -6
-17 -10 -31 -10 -17 0 -24 6 -24 19 0 10 -7 24 -15 31 -8 7 -15 19 -15 26 0 8
-9 14 -20 14 -11 0 -20 6 -20 14 0 7 -9 16 -21 19 -12 3 -18 10 -15 15 13 22
-36 -2 -51 -24 -13 -20 -17 -21 -29 -9 -8 7 -14 20 -14 28 0 10 -8 13 -25 9
-14 -2 -24 -9 -23 -16 3 -15 -33 -56 -49 -56 -18 0 -16 -10 5 -27 16 -13 15
-14 -5 -10 -12 3 -27 -1 -34 -9 -6 -8 -15 -11 -20 -8 -9 5 -13 -8 -10 -36 2
-13 1 -13 -8 0 -5 8 -13 11 -17 7 -14 -13 19 -37 52 -37 27 0 32 3 27 18 -5
16 -5 16 13 -1 12 -12 15 -20 8 -25 -13 -9 -26 -42 -16 -42 14 0 34 17 30 26
-1 5 8 10 22 12 l25 3 -23 -16 c-12 -9 -22 -25 -22 -36 0 -10 -4 -19 -10 -19
-5 0 -10 -7 -10 -15 0 -8 -4 -15 -10 -15 -5 0 -17 -11 -26 -25 -14 -21 -14
-29 -3 -62 7 -21 13 -41 14 -45 0 -3 3 -10 8 -14 4 -4 7 -14 7 -23 0 -9 22
-26 51 -40 27 -13 48 -25 45 -28 -2 -2 14 -23 35 -45 21 -23 39 -44 39 -48 0
-27 96 -87 128 -81 8 1 20 -3 27 -9 8 -7 22 -9 33 -6 51 17 265 -65 341 -131
22 -18 46 -33 54 -33 8 0 21 -7 28 -16 11 -14 11 -18 -3 -28 -16 -12 -23 -86
-8 -86 4 0 10 -9 13 -20 3 -11 1 -20 -5 -20 -5 0 -7 -3 -5 -7 2 -5 -7 -18 -20
-30 l-23 -23 -21 33 c-11 17 -19 25 -16 17 9 -29 -12 -50 -51 -50 -20 0 -44
-5 -52 -10 -10 -6 -22 -4 -37 6 -21 13 -23 13 -23 -5 0 -23 -16 -36 -25 -21
-8 13 -25 13 -25 -1 0 -5 5 -7 12 -3 7 4 8 3 4 -4 -4 -7 -14 -12 -22 -12 -8 0
-12 -5 -9 -10 4 -6 11 -8 16 -5 5 4 9 2 9 -3 0 -13 -29 -24 -42 -15 -7 3 -8 1
-4 -5 4 -7 -4 -14 -21 -17 -15 -4 -38 -11 -50 -17 -12 -6 -35 -12 -50 -14 -15
-1 -32 -2 -36 -3 -5 -1 -6 -5 -2 -10 3 -6 -17 -10 -47 -9 -29 0 -56 4 -59 10
-3 5 -13 10 -22 12 -9 1 -27 11 -40 22 -13 10 -30 20 -38 22 -8 2 -31 14 -51
28 -21 13 -51 24 -67 24 -16 0 -34 6 -41 14 -6 8 -21 16 -33 18 -16 2 -22 10
-23 28 -1 51 -15 69 -81 105 -57 31 -70 35 -91 26 -13 -6 -27 -9 -32 -6 -13 8
-88 -24 -94 -40 -4 -11 -11 -11 -41 -1 -19 7 -40 17 -45 22 -6 6 -6 49 0 118
12 127 5 149 -58 166 -37 9 -39 12 -48 64 -8 41 -7 60 2 78 26 46 18 75 -33
112 -44 32 -46 36 -48 86 -2 51 -4 55 -67 116 -78 76 -122 90 -170 54 l-31
-23 7 34 c3 19 9 61 12 94 5 53 3 63 -17 90 -19 24 -23 39 -21 77 3 36 -2 57
-18 83 -12 19 -26 35 -31 35 -5 0 -9 6 -9 14 0 7 -11 25 -25 40 -14 15 -25 34
-25 42 0 22 -54 98 -84 117 -14 10 -45 17 -68 17 -40 1 -42 2 -24 15 23 17 4
20 -25 5 -13 -8 -19 -7 -19 0 0 7 -6 7 -21 0 -28 -15 -59 -47 -52 -54 7 -7
-22 -36 -36 -36 -6 0 -11 -7 -11 -16 0 -8 -4 -13 -9 -9 -13 8 -19 -25 -9 -52
4 -13 4 -23 0 -23 -14 0 -62 -47 -62 -61 0 -8 -16 -29 -35 -47 -36 -32 -65
-42 -65 -21 0 16 -65 -36 -66 -52 0 -8 3 -18 7 -24 7 -10 9 -16 9 -32 0 -5 4
-3 8 4 5 8 13 9 22 3 13 -8 12 -10 -2 -10 -10 0 -18 -4 -18 -10 0 -5 -7 -10
-15 -10 -8 0 -15 5 -15 11 0 5 -5 7 -10 4 -6 -3 -10 -1 -10 5 0 6 -13 3 -31
-7 -17 -10 -45 -26 -62 -35 -18 -10 -26 -18 -18 -18 8 0 -2 -13 -23 -28 -36
-27 -65 -32 -116 -20 -18 4 -26 -32 -9 -43 9 -5 6 -11 -14 -20 -14 -6 -24 -15
-22 -19 6 -10 -24 -22 -36 -14 -10 6 -52 -20 -44 -28 3 -3 -8 -18 -25 -34 -24
-23 -29 -34 -24 -56 5 -26 -1 -33 -27 -30 -4 1 -2 -9 4 -21 6 -13 19 -24 30
-24 31 -3 39 -17 25 -44 -10 -19 -20 -23 -44 -21 -21 2 -36 -4 -50 -19 -10
-12 -13 -19 -6 -15 15 9 16 -10 1 -19 -7 -5 -5 -15 6 -31 14 -22 14 -24 -3
-24 -10 0 -23 -5 -29 -11 -6 -6 -18 -9 -27 -7 -15 3 -14 7 6 31 22 27 34 62
18 52 -16 -10 -22 17 -9 41 15 28 1 51 -25 41 -15 -6 -16 -279 -16 -2863 l0
-2856 88 6 c48 3 121 10 162 16 41 6 85 11 97 11 12 -1 25 4 28 9 8 13 45 13
45 1 0 -5 11 -8 24 -5 17 3 25 -1 29 -15 4 -17 9 -18 47 -10 28 6 46 6 54 0 9
-7 16 -7 23 0 8 8 13 8 17 0 10 -15 76 -14 76 2 0 8 4 7 11 -3 8 -11 12 -12
16 -2 5 14 53 17 53 3 0 -6 13 -6 33 0 17 4 76 10 129 11 54 2 98 5 98 8 0 11
89 32 102 24 21 -13 42 -14 50 -1 6 9 11 8 18 -3 6 -10 10 -11 10 -2 0 8 17
12 50 12 40 0 48 3 44 15 -4 10 0 15 14 15 11 0 22 6 25 13 3 9 11 9 34 1 23
-9 34 -8 48 2 10 8 15 17 12 21 -13 12 53 33 83 26 17 -3 36 -1 43 5 7 6 18 7
25 3 18 -11 63 -1 69 15 3 8 9 11 14 8 5 -3 34 22 65 55 31 34 61 61 66 61 13
0 -2 -24 -45 -69 -30 -32 -34 -41 -23 -50 10 -9 15 -8 20 4 3 8 14 15 25 15
11 0 23 5 27 12 5 7 3 8 -7 3 -12 -8 -12 -6 0 8 15 18 26 23 16 7 -3 -6 -1
-10 4 -10 6 0 11 -7 11 -16 0 -8 4 -13 9 -9 5 3 12 -3 14 -12 3 -13 5 -11 6 6
1 20 3 21 16 11 8 -7 15 -8 15 -2 0 5 10 12 23 16 18 5 19 8 7 15 -8 5 -19 7
-25 4 -5 -3 -4 0 3 8 10 11 17 11 31 2 16 -10 20 -9 25 3 3 9 4 19 2 22 -2 4
7 8 22 9 14 0 29 8 34 17 5 9 15 16 22 16 8 0 16 7 20 15 3 8 16 15 28 15 14
0 19 3 11 8 -18 11 -2 28 31 30 24 2 28 -1 23 -18 -3 -11 -1 -17 4 -14 5 3 12
-2 15 -10 9 -24 22 -19 20 8 0 13 -3 23 -5 21 -5 -6 -29 19 -25 26 1 3 -11 3
-28 1 -21 -3 -29 -1 -24 6 4 6 13 9 20 6 19 -7 32 16 15 27 -9 6 -10 9 -2 9 6
0 14 -4 18 -10 3 -5 12 -7 20 -4 8 4 12 10 9 16 -3 5 3 18 15 29 22 20 36 25
26 9 -3 -5 -1 -10 4 -10 6 0 11 6 11 13 1 20 42 64 47 50 7 -19 41 -16 71 6
50 34 164 51 387 57 172 5 205 8 215 23 10 17 72 32 103 25 15 -3 42 -7 60 -9
17 -1 40 -6 50 -10 13 -6 16 -3 11 9 -4 11 -1 16 12 16 139 1 419 22 419 31 0
1 19 3 43 4 24 2 48 7 55 13 14 10 57 9 77 -3 8 -5 11 -4 6 3 -3 6 -1 14 6 19
13 8 18 9 39 12 5 0 7 7 3 14 -5 8 -2 8 9 -2 15 -12 17 -11 17 13 0 15 -7 29
-15 32 -20 8 -19 24 2 24 14 0 15 2 4 13 -10 10 -3 14 31 23 24 6 42 16 40 23
-4 19 28 25 47 7 21 -19 36 -9 18 12 -10 13 -9 14 2 8 17 -11 8 20 -25 82 -13
24 -17 39 -9 32 8 -6 26 -35 40 -63 14 -29 35 -60 48 -69 18 -14 20 -19 10
-29 -15 -15 -17 -33 -4 -24 5 3 13 -5 17 -17 9 -31 61 -81 68 -65 2 7 5 5 5
-4 1 -23 24 -40 41 -29 8 5 22 3 35 -6 12 -8 25 -11 28 -7 4 3 7 -5 7 -19 0
-38 29 -101 44 -95 19 8 40 -9 31 -24 -6 -9 -10 -8 -16 7 -7 18 -8 18 -8 -3
-1 -12 5 -24 12 -26 7 -3 7 -6 1 -6 -8 -1 -8 -19 1 -64 14 -74 10 -97 -12 -70
-8 10 -11 12 -7 4 5 -9 3 -12 -4 -7 -7 4 -12 14 -12 23 0 9 -6 13 -15 9 -11
-4 -19 3 -25 19 -5 14 -20 29 -32 34 -13 5 -32 20 -43 33 l-19 23 -6 -25 c-4
-14 -3 -27 0 -30 4 -3 11 -41 14 -85 10 -106 12 -113 47 -120 28 -6 62 -45 39
-45 -5 0 -10 4 -10 9 0 5 -14 14 -30 20 -18 6 -28 6 -25 1 3 -5 0 -20 -7 -32
-7 -13 -11 -27 -10 -31 1 -5 -2 -6 -8 -2 -6 4 -18 1 -26 -6 -21 -17 -33 -2
-42 51 l-7 44 -24 -32 c-12 -18 -26 -43 -29 -56 -7 -21 -9 -22 -39 -9 -28 11
-33 18 -33 46 0 18 9 51 20 72 26 50 20 74 -13 53 -24 -16 -51 -13 -41 4 4 6
2 8 -3 5 -6 -4 -21 2 -34 12 -23 19 -24 19 -5 40 22 24 51 29 42 6 -3 -8 -1
-15 4 -15 6 0 10 7 10 15 0 8 7 15 15 15 8 0 15 -4 15 -9 0 -13 42 -21 56 -10
8 7 13 3 18 -13 5 -19 8 -20 16 -8 5 8 10 11 10 7 0 -5 7 -2 15 7 19 18 26 73
11 81 -6 2 -2 3 9 0 16 -4 23 2 32 24 13 35 9 41 -29 41 -16 0 -27 4 -24 9 3
5 -1 11 -9 15 -13 5 -20 -5 -16 -26 0 -5 -3 -8 -9 -8 -5 0 -10 9 -10 20 0 18
-22 27 -54 21 -4 -1 -20 6 -35 15 -24 16 -25 16 -12 1 7 -9 12 -17 10 -18 -2
0 -11 -2 -20 -4 -9 -1 -26 -6 -38 -10 -15 -5 -21 -2 -21 9 0 20 -48 22 -56 2
-4 -9 -23 -13 -62 -13 -32 0 -62 -2 -67 -5 -6 -3 -31 -9 -57 -13 -43 -7 -69
-28 -52 -44 4 -3 9 0 11 7 3 6 9 10 13 7 5 -3 5 -17 0 -31 -7 -17 -7 -23 0
-19 6 3 10 2 10 -4 0 -6 7 -8 15 -5 10 4 12 11 7 18 -13 16 -22 57 -11 50 5
-3 9 -14 9 -24 0 -12 5 -17 14 -14 10 4 13 -2 10 -21 -2 -19 1 -25 12 -21 9 3
16 -4 20 -19 3 -14 10 -22 16 -19 5 3 15 1 23 -6 11 -9 12 -7 8 9 -3 10 0 28
7 38 10 16 11 15 7 -9 -2 -16 1 -29 9 -32 8 -3 11 0 7 10 -3 7 -1 14 5 14 5 0
13 -7 16 -16 3 -8 10 -12 16 -9 21 13 9 -14 -20 -45 -35 -37 -38 -50 -11 -50
11 0 23 -4 26 -10 3 -5 0 -7 -8 -4 -8 3 -17 -3 -21 -13 -3 -10 -13 -29 -21
-43 -16 -26 -15 -53 4 -129 14 -52 8 -77 -20 -84 -16 -4 -19 -11 -14 -29 6
-22 5 -22 -7 -3 -7 11 -13 25 -13 30 0 6 -15 9 -33 9 -17 -1 -32 2 -32 7 0 5
-10 5 -23 0 -39 -15 -102 -17 -99 -3 3 17 -4 15 -45 -13 -20 -13 -40 -22 -45
-19 -4 3 -6 -9 -4 -26 2 -20 -1 -29 -8 -27 -6 2 -17 -15 -24 -37 -12 -40 -12
-41 20 -66 18 -14 42 -34 53 -45 12 -11 28 -19 37 -17 30 6 28 -16 -2 -28 -19
-8 -36 -26 -47 -51 -9 -22 -19 -39 -22 -40 -33 -4 -57 -11 -67 -19 -8 -7 -13
-6 -17 4 -3 8 -1 17 6 20 9 3 9 5 0 5 -22 2 -24 -18 -4 -38 19 -19 19 -20 0
-18 -10 1 -19 5 -19 9 0 4 -4 8 -10 8 -5 0 -7 -7 -4 -15 4 -10 0 -15 -14 -15
-11 0 -25 -7 -32 -15 -10 -12 -58 -31 -100 -40 -3 0 -15 -6 -28 -13 -12 -7
-27 -10 -33 -6 -6 3 -16 -2 -23 -12 -7 -10 -20 -15 -28 -11 -19 7 -91 -17 -81
-26 3 -4 -3 -7 -13 -7 -11 0 -24 -4 -30 -10 -5 -5 -30 -12 -54 -15 -25 -3 -58
-8 -73 -11 -16 -3 -38 -7 -50 -9 -12 -1 -44 -10 -70 -19 -27 -9 -52 -14 -57
-11 -4 3 -10 -2 -14 -10 -3 -8 -11 -15 -17 -15 -8 0 -7 5 2 17 12 15 12 16 -1
8 -8 -4 -23 -15 -33 -23 -9 -8 -17 -12 -17 -8 0 4 -9 2 -20 -4 -12 -6 -51 -14
-88 -17 -43 -4 -85 -15 -117 -31 -50 -26 -56 -28 -76 -31 -5 0 -7 -5 -4 -11 3
-5 -3 -10 -14 -10 -11 0 -23 -4 -26 -10 -3 -5 -18 -10 -32 -10 -15 0 -46 -10
-70 -21 -51 -25 -130 -35 -378 -49 -99 -6 -193 -12 -210 -14 -16 -2 -70 -7
-120 -11 -49 -4 -95 -11 -101 -16 -6 -5 -88 -8 -185 -6 -96 2 -158 1 -139 -2
l35 -7 -36 -5 c-19 -2 -46 -2 -60 2 l-24 6 25 5 c14 3 -38 6 -115 7 -165 3
-267 8 -315 17 -40 8 -439 14 -457 7 -10 -4 -13 -220 -13 -994 l0 -989 5120 0
5120 0 0 1005 0 1006 -152 1 c-363 2 -467 0 -528 -9 l-65 -10 49 -2 c27 0 47
-4 43 -7 -11 -11 -531 -22 -544 -12 -9 7 -13 7 -13 -1 0 -6 -12 -11 -27 -10
l-28 1 25 8 c22 7 20 8 -15 9 -29 0 -36 -2 -25 -9 10 -7 -18 -10 -90 -11 -58
0 -132 -2 -165 -3 -33 -2 -85 0 -115 4 -55 7 -55 7 -11 9 66 2 42 13 -36 16
-44 2 -70 -1 -75 -8 -6 -9 -12 -9 -27 0 -27 17 -94 34 -154 40 -29 3 -51 11
-54 19 -3 8 -23 24 -45 35 -34 17 -51 19 -100 14 -35 -4 -85 -2 -125 5 -54 11
-71 19 -95 46 -31 35 -71 53 -103 48 -34 -6 -156 -9 -262 -7 -82 2 -107 7
-121 20 -11 12 -34 18 -65 19 -35 1 -53 7 -68 22 -11 12 -27 22 -37 22 -23 0
-152 51 -152 61 0 17 -33 39 -59 39 -15 0 -36 7 -47 15 -10 8 -36 15 -56 15
-44 0 -47 11 -14 45 34 33 103 42 177 21 113 -31 104 -14 -25 48 -102 49 -146
93 -146 144 0 27 -4 30 -35 34 -19 2 -37 -1 -39 -7 -2 -5 -5 -2 -6 8 -2 9 -3
20 -4 25 -1 4 -12 19 -25 34 -20 23 -26 25 -43 15 -15 -10 -20 -9 -28 3 -6 10
-4 17 8 24 9 5 20 14 24 20 5 7 8 7 8 1 0 -5 4 -4 9 4 5 7 14 10 21 6 9 -6 9
-10 -1 -17 -10 -7 -5 -8 14 -3 16 3 26 2 23 -3 -3 -5 1 -9 9 -9 18 0 20 27 3
28 -7 1 -2 5 12 9 37 12 52 11 44 -2 -5 -8 4 -10 33 -6 25 4 46 1 58 -8 11 -8
35 -14 55 -12 20 1 47 -6 63 -16 15 -10 27 -14 27 -9 0 6 11 8 25 5 14 -2 25
-9 25 -15 0 -8 3 -8 11 0 8 8 26 7 66 -4 30 -8 57 -12 60 -9 3 3 19 -2 36 -10
24 -13 31 -14 38 -2 8 11 10 11 18 -1 9 -13 36 -12 90 5 17 5 22 4 17 -4 -4
-7 0 -12 11 -13 95 -4 153 -3 153 2 0 12 44 18 56 8 8 -7 14 -7 19 1 9 15 28
13 19 -2 -4 -7 2 -5 13 4 22 20 58 24 68 7 4 -6 13 -8 21 -5 8 3 14 2 14 -3 0
-4 13 -8 30 -7 16 1 30 3 30 6 0 7 72 4 92 -4 9 -4 26 -2 38 4 15 8 25 8 34 1
8 -6 21 -9 29 -5 9 3 31 1 50 -5 27 -9 40 -8 63 4 35 18 48 19 38 3 -5 -8 -3
-8 7 -2 13 8 87 13 179 13 35 -1 61 0 113 1 15 1 40 8 55 16 15 7 48 14 73 14
26 0 64 6 85 14 22 7 44 11 51 9 7 -2 21 0 31 6 15 8 23 7 31 -3 10 -12 18
-12 52 2 35 13 42 14 49 1 8 -12 11 -11 22 3 17 22 29 23 115 14 76 -8 89 -16
103 -66 7 -26 7 -31 -5 -26 -13 4 -12 1 1 -19 18 -28 35 -31 244 -41 160 -8
342 -7 408 1 23 3 50 1 60 -4 12 -6 23 -5 36 5 10 7 23 11 27 8 5 -3 9 0 9 5
0 6 7 11 15 11 8 0 15 -7 15 -15 0 -8 5 -15 10 -15 6 0 10 4 10 10 0 6 31 7
80 3 l80 -6 0 3787 0 3786 -4512 -1 c-2482 0 -4506 -3 -4498 -6z m794 -420 c8
3 17 1 19 -6 3 -9 11 -9 38 0 32 12 54 10 126 -12 13 -4 20 -11 17 -16 -6 -11
22 -66 40 -76 11 -6 66 -103 66 -116 0 -1 -14 -4 -31 -5 -18 -2 -28 2 -24 8 3
5 0 7 -8 4 -8 -3 -17 2 -21 11 -3 9 -21 22 -41 30 -24 10 -33 20 -29 30 4 8 1
15 -6 15 -6 0 -9 4 -6 9 8 13 -20 21 -31 10 -10 -10 -88 32 -146 77 -31 25
-34 34 -11 34 9 0 12 5 8 13 -6 8 -3 8 9 -2 9 -7 23 -11 31 -8z m131 -381 c-3
-3 -11 0 -18 7 -9 10 -8 11 6 5 10 -3 15 -9 12 -12z m1251 -144 c0 -12 -8 -18
-23 -18 -13 0 -23 -4 -23 -9 0 -4 -11 -6 -25 -3 -14 2 -25 8 -25 12 0 12 29
20 35 10 6 -10 35 -2 33 8 -1 14 2 19 15 19 7 0 13 -9 13 -19z m47 15 c-7 -2
-19 -2 -25 0 -7 3 -2 5 12 5 14 0 19 -2 13 -5z m238 -3 c12 0 17 -5 14 -11 -4
-5 2 -18 12 -27 12 -11 19 -32 20 -59 1 -46 -9 -53 -38 -27 -10 9 -36 18 -58
19 -42 3 -81 20 -81 35 0 6 7 10 15 10 8 0 15 5 15 10 0 6 -9 10 -20 10 -13 0
-20 7 -20 20 0 23 4 24 30 10 24 -13 87 -1 68 12 -9 7 -8 8 5 4 10 -3 28 -6
38 -6z m-221 -25 c0 -8 -6 -15 -14 -15 -20 0 -29 17 -14 23 22 9 28 7 28 -8z
m-33 -71 c-3 -3 -12 -4 -19 -1 -8 3 -5 6 6 6 11 1 17 -2 13 -5z m956 -62 c-8
-5 -2 -12 17 -21 23 -9 38 -10 63 -2 20 7 44 8 62 2 17 -4 60 -7 95 -5 36 1
97 -3 135 -11 100 -19 230 -29 249 -18 35 20 85 2 140 -49 41 -38 74 -57 133
-78 43 -15 99 -37 125 -49 41 -20 64 -28 91 -30 4 -1 7 -11 7 -22 0 -16 5 -20
20 -16 24 6 24 7 5 -29 -17 -33 -20 -120 -6 -158 6 -13 12 -76 14 -138 4 -99
1 -156 -18 -320 -3 -21 -1 -38 3 -38 4 0 6 -17 3 -37 -4 -35 -5 -36 -12 -13
-6 21 -7 22 -8 5 -1 -12 5 -27 12 -34 7 -8 8 -15 2 -17 -6 -3 -10 -53 -9 -127
0 -126 9 -187 25 -187 6 0 5 -8 -1 -20 -6 -12 -7 -27 -2 -36 4 -8 5 -43 1 -77
-10 -75 -4 -104 17 -86 11 9 14 7 14 -9 0 -12 -5 -24 -11 -28 -8 -5 -8 -8 0
-14 7 -3 9 -14 5 -24 -5 -14 -9 -14 -22 -4 -13 11 -15 9 -9 -17 4 -16 9 -40
13 -52 4 -16 -1 -29 -21 -49 -17 -16 -25 -34 -22 -45 3 -11 1 -19 -5 -19 -5 0
-6 -4 -3 -10 3 -5 1 -10 -5 -10 -8 0 -10 -9 -6 -26 5 -17 3 -23 -4 -19 -5 3
-10 12 -10 19 0 8 -12 21 -26 31 -23 15 -26 21 -20 58 5 32 4 38 -5 27 -8 -11
-9 5 -5 63 5 68 3 82 -14 105 -11 15 -22 50 -26 77 -9 81 -13 95 -38 116 -18
16 -25 35 -31 82 -3 34 -11 67 -17 74 -6 7 -7 13 -3 13 4 0 2 7 -5 15 -17 20
-30 9 -30 -26 0 -16 -4 -29 -10 -29 -6 0 -10 -26 -10 -59 0 -33 -4 -63 -10
-66 -5 -3 -10 -2 -10 4 0 5 -9 12 -19 16 -25 8 -65 122 -65 188 0 26 -4 47 -9
47 -5 0 -7 7 -4 15 10 25 -13 28 -37 6 -21 -20 -24 -20 -30 -5 -4 12 -10 13
-19 6 -10 -8 -12 -2 -9 27 3 25 -1 41 -12 50 -13 11 -18 8 -36 -21 -11 -18
-20 -41 -20 -50 0 -10 -5 -18 -11 -18 -7 0 -9 11 -6 29 7 35 -4 83 -18 73 -28
-20 -48 -77 -54 -152 -2 -21 -31 37 -31 61 0 22 -19 21 -37 -1 -10 -13 -11
-11 -6 8 3 12 9 22 13 22 12 0 19 39 9 46 -5 3 -5 13 1 25 6 11 7 19 1 19 -5
0 -14 -14 -20 -30 -6 -18 -6 -28 -1 -25 6 4 10 -1 10 -9 0 -20 -17 -29 -24
-14 -3 7 -3 2 0 -11 4 -17 3 -21 -6 -16 -8 5 -11 0 -8 -13 2 -12 -5 -27 -17
-36 -11 -9 -14 -16 -7 -16 6 0 12 -5 12 -11 0 -5 -5 -7 -10 -4 -6 3 -12 -1
-15 -9 -6 -19 -11 -37 -15 -51 -2 -5 -9 -14 -16 -20 -9 -7 -11 -15 -4 -25 6
-10 10 -11 10 -2 0 12 35 52 45 52 12 0 3 -21 -21 -50 -15 -17 -26 -42 -26
-55 0 -14 -4 -25 -9 -25 -4 0 -10 -8 -12 -17 -3 -11 -5 -7 -6 10 -1 16 3 26 9
22 6 -3 7 1 4 9 -11 28 -24 17 -24 -19 0 -19 -3 -35 -7 -35 -5 0 -7 18 -7 39
1 26 -4 46 -16 59 -18 19 -18 20 6 31 14 6 24 19 24 31 0 11 6 20 13 21 9 0 9
2 -1 6 -6 2 -10 9 -7 13 11 18 16 170 6 170 -6 0 -11 6 -11 13 0 7 -7 22 -15
33 -11 14 -15 15 -14 4 1 -8 1 -24 -1 -35 l-1 -20 -9 20 c-12 27 -13 85 -1 67
7 -11 9 -11 14 2 4 9 1 15 -6 13 -16 -3 -28 102 -21 194 4 44 2 84 -3 94 -16
28 -35 -129 -33 -274 3 -146 -26 -330 -43 -275 -10 34 -10 41 -3 74 12 51 19
240 9 240 -6 0 -9 12 -6 28 3 24 2 25 -7 7 -8 -15 -9 -7 -4 30 3 28 8 64 9 82
2 18 6 43 10 55 5 17 4 19 -3 9 -8 -11 -13 -4 -22 30 -6 24 -13 52 -16 62 -3
10 0 17 8 18 7 0 1 5 -13 10 -18 7 -25 16 -23 27 5 17 -39 72 -57 72 -6 0 -7
-4 -4 -10 3 -5 3 -15 -1 -21 -9 -16 -24 9 -24 43 0 14 -6 29 -12 32 -10 5 -10
7 1 12 11 5 11 8 0 15 -11 6 -11 11 -1 21 19 19 14 61 -12 90 -12 15 -25 25
-28 22 -3 -3 -12 18 -19 45 -7 28 -17 51 -21 51 -5 0 -12 10 -17 22 -7 19 -4
25 21 35 24 10 27 16 20 30 -6 10 -6 26 -1 39 7 19 3 28 -22 48 l-31 26 74 0
c40 0 68 -4 61 -8z m-1929 -227 c-4 -8 -11 -15 -16 -15 -6 0 -5 6 2 15 7 8 14
15 16 15 2 0 1 -7 -2 -15z m46 -56 c0 -5 -7 -9 -15 -9 -9 0 -15 9 -15 21 0 18
2 19 15 9 8 -7 15 -16 15 -21z m3373 -14 c-15 -19 -32 -35 -37 -35 -6 0 5 16
24 35 43 45 49 45 13 0z m-1573 -5 c0 -5 -4 -10 -10 -10 -5 0 -10 5 -10 10 0
6 5 10 10 10 6 0 10 -4 10 -10z m1907 -22 c-3 -7 -5 -2 -5 12 0 14 2 19 5 13
2 -7 2 -19 0 -25z m-3880 16 c-3 -3 -12 -4 -19 -1 -8 3 -5 6 6 6 11 1 17 -2
13 -5z m2013 -56 c0 -12 -6 -9 -26 13 -19 22 -19 22 4 8 12 -8 22 -17 22 -21z
m1848 -70 c-17 -111 -18 -472 0 -489 6 -7 12 -25 12 -41 0 -15 6 -47 14 -70 7
-24 18 -62 25 -85 7 -25 19 -44 30 -48 11 -3 22 -13 25 -21 4 -10 1 -13 -7 -9
-6 4 3 -7 21 -23 22 -20 29 -31 20 -34 -10 -4 -10 -10 -1 -31 21 -46 8 -30
-46 54 -58 90 -81 151 -106 284 -32 167 -29 371 6 549 17 85 22 60 7 -36z
m-3024 51 c-8 -14 -24 -10 -24 6 0 9 6 12 15 9 8 -4 12 -10 9 -15z m4126 -302
c0 -2 -10 -12 -22 -23 l-23 -19 19 23 c18 21 26 27 26 19z m-2793 -249 c-3 -8
-6 -5 -6 6 -1 11 2 17 5 13 3 -3 4 -12 1 -19z m-10 -165 c-3 -10 -5 -4 -5 12
0 17 2 24 5 18 2 -7 2 -21 0 -30z m-1367 -42 c0 -18 -17 -20 -36 -6 -18 14
-18 14 9 15 15 0 27 -4 27 -9z m1787 -23 c-3 -8 -6 -5 -6 6 -1 11 2 17 5 13 3
-3 4 -12 1 -19z m9 -68 c17 0 20 -71 3 -101 -15 -29 -26 -16 -27 36 -1 25 -3
49 -3 53 -1 4 0 14 1 22 1 11 3 11 7 3 2 -7 11 -13 19 -13z m-409 -32 c1 -18
4 -62 7 -98 6 -63 5 -64 -8 -30 -16 38 -21 160 -8 160 5 0 9 -15 9 -32z m334
15 c10 -11 10 -14 2 -9 -13 7 -17 -4 -14 -31 3 -22 -16 -14 -22 9 -6 22 -7 22
-38 -7 -18 -17 -28 -22 -23 -13 8 14 71 68 80 68 1 0 8 -8 15 -17z m-94 -15
c-3 -8 -6 -5 -6 6 -1 11 2 17 5 13 3 -3 4 -12 1 -19z m53 -32 c0 -3 -4 -8 -10
-11 -5 -3 -10 -1 -10 4 0 6 5 11 10 11 6 0 10 -2 10 -4z m-37 -36 c-5 -19 -23
-39 -23 -25 0 9 20 45 24 45 2 0 2 -9 -1 -20z m-16 -72 c-3 -7 -5 -2 -5 12 0
14 2 19 5 13 2 -7 2 -19 0 -25z m1769 -57 l-6 54 19 -68 c25 -88 34 -100 69
-84 15 6 33 20 40 29 7 10 21 22 31 28 17 9 18 7 7 -23 -6 -18 -14 -37 -18
-43 -10 -15 -2 -52 14 -72 10 -12 10 -14 1 -8 -7 4 -13 3 -13 -3 0 -5 5 -11
10 -13 7 -2 6 -14 -2 -35 -10 -28 -9 -35 14 -65 13 -18 30 -44 37 -58 10 -21
9 -22 -1 -6 -29 43 -57 71 -64 63 -4 -4 8 -25 26 -48 39 -49 12 -39 -39 15
-47 48 -80 48 -120 -1 -17 -21 -31 -35 -31 -32 0 17 26 78 44 102 19 26 20 30
5 56 -15 26 -15 29 0 38 14 10 14 16 -9 59 -13 27 -52 78 -85 114 l-60 64 68
-59 68 -58 -5 54z m-1939 -13 c-3 -7 -5 -2 -5 12 0 14 2 19 5 13 2 -7 2 -19 0
-25z m80 6 c2 -6 -3 -11 -12 -11 -8 0 -15 7 -15 15 0 15 22 12 27 -4z m150
-16 c-3 -8 -6 -5 -6 6 -1 11 2 17 5 13 3 -3 4 -12 1 -19z m27 -85 c-7 -111
-10 -119 -50 -144 -43 -26 -54 -16 -50 46 2 22 4 54 4 71 2 24 9 34 37 47 36
17 44 31 23 41 -7 3 -3 3 10 0 12 -3 22 -1 22 5 0 6 2 11 4 11 3 0 2 -35 0
-77z m-325 20 c1 -7 -3 -13 -9 -13 -5 0 -10 15 -9 33 0 27 2 29 9 12 5 -11 9
-26 9 -32z m138 25 c-3 -8 -6 -5 -6 6 -1 11 2 17 5 13 3 -3 4 -12 1 -19z m-80
-10 c-3 -8 -6 -5 -6 6 -1 11 2 17 5 13 3 -3 4 -12 1 -19z m0 -60 c-8 -24 -12
-28 -15 -15 -5 23 4 47 17 47 6 0 5 -13 -2 -32z m36 -60 c-3 -15 -9 -25 -14
-22 -5 3 -9 0 -9 -5 0 -6 4 -11 10 -11 5 0 7 -7 4 -15 -4 -8 -11 -12 -16 -9
-6 4 -8 -15 -5 -52 4 -37 2 -52 -3 -39 -8 18 -10 16 -14 -14 -1 -10 -45 -51
-54 -51 -2 0 -2 16 1 36 3 19 2 47 -4 61 -10 28 -2 93 12 93 5 0 9 -21 9 -46
l0 -46 28 53 c32 61 55 99 58 96 1 -1 0 -14 -3 -29z m237 -88 c0 -5 -4 -10
-10 -10 -5 0 -10 5 -10 10 0 6 5 10 10 10 6 0 10 -4 10 -10z m-391 -157 c-4
-38 -5 -71 -2 -75 2 -5 -3 -8 -11 -8 -19 0 -19 5 -5 87 15 84 27 81 18 -4z
m2034 37 c-3 -12 -8 -19 -11 -16 -5 6 5 36 12 36 2 0 2 -9 -1 -20z m-1899 -25
c-4 -8 -8 -15 -10 -15 -2 0 -4 7 -4 15 0 8 4 15 10 15 5 0 7 -7 4 -15z m2166
-6 c0 -6 -4 -7 -10 -4 -5 3 -10 11 -10 16 0 6 5 7 10 4 6 -3 10 -11 10 -16z
m-2230 -20 c0 -11 -4 -17 -10 -14 -5 3 -8 0 -6 -7 13 -42 16 -69 6 -63 -6 4
-10 -5 -10 -22 0 -22 2 -25 10 -13 5 8 10 11 10 7 0 -5 -9 -22 -21 -38 -11
-16 -18 -33 -15 -37 3 -5 -1 -9 -8 -9 -11 0 -14 64 -7 153 1 12 39 64 47 64 2
0 4 -9 4 -21z m-93 -171 c-3 -7 -5 -2 -5 12 0 14 2 19 5 13 2 -7 2 -19 0 -25z
m2448 -90 c19 -41 36 -97 39 -128 5 -51 4 -48 -19 35 -14 49 -35 105 -45 123
-21 35 -23 42 -15 42 4 0 21 -33 40 -72z m-2388 -72 c4 -38 2 -65 -7 -81 -17
-32 -40 -40 -40 -15 0 11 6 20 14 20 8 0 16 7 20 15 3 8 1 15 -4 15 -6 0 -10
-5 -10 -11 0 -5 -4 -8 -9 -4 -10 5 -8 28 4 87 3 15 0 30 -6 34 -8 5 -9 3 -4
-6 5 -9 4 -11 -4 -6 -9 6 -9 11 0 22 20 24 39 -5 46 -70z m133 -30 c0 -2 -8
-10 -17 -17 -16 -13 -17 -12 -4 4 13 16 21 21 21 13z m136 -43 c-10 -10 -19 5
-10 18 6 11 8 11 12 0 2 -7 1 -15 -2 -18z m-263 -60 c5 -28 -14 -118 -29 -133
-5 -5 -10 17 -12 51 -3 57 -2 60 17 54 13 -4 21 -2 21 5 0 6 -4 9 -9 5 -13 -7
-24 13 -17 30 9 24 23 17 29 -12z m2442 -73 c11 -140 7 -188 -19 -239 -15 -28
-15 -30 5 -36 19 -6 18 -9 -13 -30 -30 -20 -33 -27 -31 -64 1 -23 -2 -41 -8
-41 -5 0 -7 -12 -4 -27 3 -18 0 -14 -10 12 -8 21 -21 42 -28 47 -28 17 -167
-10 -167 -34 0 -9 -34 -11 -43 -2 -3 4 1 13 9 21 8 8 12 18 9 23 -3 4 13 11
35 15 22 4 40 11 40 16 0 5 8 9 18 9 25 0 82 49 82 71 0 10 6 22 13 26 8 4 22
31 32 58 10 28 26 68 36 90 10 22 21 70 25 108 4 37 8 66 10 65 1 -2 5 -41 9
-88z m-2405 -30 c0 -5 -5 -10 -11 -10 -7 0 -9 -10 -5 -25 8 -30 1 -32 -14 -4
-9 15 -8 24 1 35 13 16 29 19 29 4z m-47 -60 c-3 -10 -12 -25 -19 -31 -12 -10
-13 -8 -8 7 7 19 24 44 29 44 2 0 1 -9 -2 -20z m-83 -65 c0 -14 -4 -25 -10
-25 -11 0 -14 33 -3 43 11 11 13 8 13 -18z m71 -29 c-6 -6 -8 -21 -5 -33 3
-11 1 -24 -5 -27 -7 -5 -8 -1 -4 10 4 12 3 15 -6 10 -10 -6 -11 1 -7 29 4 26
3 34 -6 29 -7 -5 -8 -3 -4 5 5 7 14 10 22 7 8 -3 13 -2 13 2 -3 20 4 24 8 4 3
-13 0 -29 -6 -36z m54 -26 c-4 -23 -9 -39 -12 -36 -3 2 -2 23 2 46 4 23 9 39
12 36 3 -2 2 -23 -2 -46z m345 -78 c0 -4 -18 -32 -41 -62 -47 -63 -65 -102
-76 -167 l-7 -48 -6 40 c-4 36 -8 40 -30 37 -14 -2 -37 -18 -52 -35 -31 -35
-47 -30 -30 8 7 14 12 35 12 45 0 11 9 24 21 30 16 9 19 18 14 39 -6 29 21 62
61 73 10 4 44 15 74 27 65 24 60 23 60 13z m-411 -74 c-7 -12 -14 -29 -15 -36
-4 -22 -14 -27 -14 -8 0 19 31 78 38 72 2 -3 -2 -15 -9 -28z m-2100 -91 c58
-44 176 -108 209 -113 7 -1 23 -10 35 -18 61 -44 98 -65 139 -79 25 -9 60 -25
79 -36 19 -12 63 -35 99 -53 66 -34 80 -44 80 -64 0 -8 -14 -5 -37 7 -21 10
-49 19 -63 19 -14 0 -44 13 -66 29 -21 16 -56 34 -78 39 -21 6 -47 19 -57 28
-11 9 -19 13 -19 7 0 -6 -11 -8 -25 -5 -14 2 -25 8 -25 11 0 18 -82 87 -173
147 -88 58 -195 138 -222 167 -15 15 50 -30 124 -86z m2108 41 c-3 -8 -6 -5
-6 6 -1 11 2 17 5 13 3 -3 4 -12 1 -19z m3 -44 c6 -14 10 -33 9 -42 0 -14 -2
-13 -10 3 -6 14 -7 10 -2 -15 17 -87 0 -122 -26 -52 -9 26 -11 54 -7 85 8 52
21 60 36 21z m2430 -183 c-9 -19 -13 -22 -20 -11 -5 8 -5 21 1 31 5 10 9 30
10 46 1 27 1 27 11 -6 7 -24 6 -42 -2 -60z m-2425 -13 c-4 -45 -4 -45 -16 -26
-7 12 -6 23 3 38 7 11 13 20 14 20 1 0 0 -15 -1 -32z m1627 2 c-62 -49 -124
-87 -171 -107 -65 -27 -80 -23 -22 6 39 20 74 61 51 61 -5 0 -10 5 -10 11 0 6
8 8 20 4 23 -7 60 10 60 30 0 10 13 13 46 12 42 -2 44 -3 26 -17z m-1617 -60
c-8 -16 -15 -42 -15 -59 0 -31 -15 -50 -23 -29 -2 7 -16 -12 -30 -41 -18 -38
-28 -50 -32 -39 -4 9 6 34 23 59 16 24 42 65 56 92 29 51 46 66 21 17z m2402
-42 c-3 -7 -5 -2 -5 12 0 14 2 19 5 13 2 -7 2 -19 0 -25z m-3462 -198 c8 -13
-5 -13 -25 0 -13 8 -13 10 2 10 9 0 20 -4 23 -10z m3167 -44 c5 3 34 -15 65
-40 l56 -47 29 36 c41 49 54 44 23 -10 -17 -27 -23 -49 -18 -57 4 -7 8 -25 9
-40 0 -14 11 -37 24 -51 31 -32 71 -108 63 -120 -3 -6 -13 8 -22 31 -17 42
-56 90 -103 123 -31 22 -48 17 -105 -35 -31 -28 -32 -28 -26 -5 3 13 17 37 30
52 12 16 24 32 24 35 5 23 6 52 2 48 -2 -2 -23 14 -46 36 -23 22 -59 49 -79
59 -56 29 -46 32 14 4 28 -13 56 -22 60 -19z m-2687 -92 c33 -10 61 -22 63
-26 2 -4 9 -5 16 -2 6 2 28 -1 47 -8 18 -7 43 -13 54 -12 11 1 33 2 48 3 16 1
26 5 23 9 -3 5 2 9 10 9 11 0 14 -7 9 -24 -4 -17 -1 -23 12 -23 15 0 16 -2 3
-10 -12 -8 -12 -12 -2 -18 19 -12 4 -45 -17 -36 -27 11 -102 4 -161 -16 -53
-18 -80 -14 -66 9 4 6 16 11 27 11 10 0 19 4 19 10 0 5 6 7 14 4 8 -3 17 -1
20 4 3 5 -16 20 -42 33 -26 13 -49 26 -52 29 -15 16 -51 29 -65 24 -8 -3 -15
-1 -15 5 0 6 -16 17 -35 25 -77 32 -11 32 90 0z m566 -124 c-3 -3 -9 -9 -13
-14 -5 -5 -8 3 -8 18 0 22 2 25 14 14 8 -7 11 -15 7 -18z m-237 0 c-22 -9 -29
-6 -20 9 4 6 14 7 23 4 15 -6 14 -7 -3 -13z m226 -439 c0 -5 3 -18 6 -28 5
-16 4 -16 -10 1 -18 23 -20 36 -6 36 6 0 10 -4 10 -9z m2464 -213 c-3 -13 -12
-36 -20 -53 l-13 -30 4 28 c11 61 16 77 26 77 6 0 8 -9 3 -22z m-321 -25 c-7
-2 -19 -2 -25 0 -7 3 -2 5 12 5 14 0 19 -2 13 -5z m257 -189 c0 -8 -4 -14 -10
-14 -5 0 -10 4 -10 9 0 5 -3 18 -7 28 -6 16 -5 16 10 4 9 -7 17 -20 17 -27z
m-33 -46 c-3 -7 -5 -2 -5 12 0 14 2 19 5 13 2 -7 2 -19 0 -25z m-2517 -52 c0
-8 -3 -21 -6 -30 -5 -13 -8 -13 -20 -1 -8 7 -11 21 -8 29 8 20 34 21 34 2z
m1675 -136 c-3 -5 -15 -10 -26 -10 -10 0 -19 5 -19 10 0 6 12 10 26 10 14 0
23 -4 19 -10z m-2392 -170 c41 -27 79 -50 85 -50 6 0 12 -5 14 -11 3 -8 10 -8
26 2 19 12 23 11 37 -8 8 -12 25 -23 37 -25 13 -2 24 -11 27 -23 2 -11 19 -37
37 -59 22 -25 30 -42 23 -46 -7 -5 -8 -18 -1 -43 8 -29 7 -35 -4 -30 -8 3 -14
9 -14 13 0 4 -21 17 -47 28 -46 20 -83 52 -83 71 0 5 -10 7 -22 4 -20 -4 -21
-3 -6 7 15 9 16 14 5 30 -6 11 -18 20 -25 20 -7 0 -11 4 -8 9 3 5 -7 19 -23
32 -49 42 -143 129 -138 129 3 0 39 -22 80 -50z m17 25 c7 -8 8 -15 2 -15 -5
0 -15 7 -22 15 -7 8 -8 15 -2 15 5 0 15 -7 22 -15z m99 -228 c-9 -7 -19 -24
-23 -39 -6 -27 -26 -40 -26 -18 0 24 32 70 48 70 15 -1 15 -2 1 -13z m56 -387
c3 -5 -1 -10 -9 -10 -9 0 -16 5 -16 10 0 6 4 10 9 10 6 0 13 -4 16 -10z m353
-280 c-7 -10 -14 -18 -15 -16 -6 6 9 36 18 36 5 0 4 -9 -3 -20z m-55 -67 c-20
-15 -53 -17 -53 -3 0 6 5 10 10 10 6 0 10 6 10 14 0 11 5 12 25 3 23 -11 23
-13 8 -24z m-68 7 c3 -5 1 -10 -4 -10 -6 0 -11 5 -11 10 0 6 2 10 4 10 3 0 8
-4 11 -10z m-135 -40 c0 -10 -7 -20 -15 -24 -8 -3 -15 -1 -15 4 0 6 6 10 13
11 6 0 3 4 -8 8 -11 5 -28 4 -39 -1 -13 -7 -16 -7 -11 2 9 15 47 29 63 23 6
-3 12 -13 12 -23z m450 -104 c0 -3 -4 -8 -10 -11 -5 -3 -10 -1 -10 4 0 6 5 11
10 11 6 0 10 -2 10 -4z m2 -38 c-7 -7 -12 -8 -12 -2 0 6 3 14 7 17 3 4 9 5 12
2 2 -3 -1 -11 -7 -17z m-2594 -30 c-6 -18 -22 -20 -43 -3 -19 14 -18 14 13 15
22 0 32 -4 30 -12z m122 -12 c0 -3 -4 -8 -10 -11 -5 -3 -10 -1 -10 4 0 6 5 11
10 11 6 0 10 -2 10 -4z m2337 -83 c-3 -10 -5 -4 -5 12 0 17 2 24 5 18 2 -7 2
-21 0 -30z m2501 -149 c-2 -32 -18 -61 -18 -34 0 6 -6 8 -12 4 -7 -4 -5 2 6
14 11 13 16 30 13 42 -3 11 -1 17 4 14 5 -3 8 -21 7 -40z m-1533 6 c-3 -5 -14
-10 -23 -9 -14 0 -13 2 3 9 27 11 27 11 20 0z m3167 -51 c-18 -17 -35 -29 -38
-26 -5 5 53 57 64 57 4 0 -8 -14 -26 -31z m-4825 5 c-3 -3 -12 -4 -19 -1 -8 3
-5 6 6 6 11 1 17 -2 13 -5z m3379 -246 c10 -15 -5 -55 -32 -87 -27 -33 -44
-40 -44 -18 0 8 -9 22 -20 32 -29 26 -25 42 9 37 22 -3 29 1 34 17 3 12 0 21
-6 21 -8 0 -7 4 2 9 15 10 48 3 57 -11z m-3940 -277 c-7 -11 -56 -21 -56 -10
0 9 19 17 43 18 10 1 16 -3 13 -8z m-114 -83 c-4 -3 -41 -9 -82 -12 -64 -5
-71 -4 -51 6 26 13 146 19 133 6z m-215 -14 c-3 -3 -12 -4 -19 -1 -8 3 -5 6 6
6 11 1 17 -2 13 -5z m320 0 c-3 -3 -12 -4 -19 -1 -8 3 -5 6 6 6 11 1 17 -2 13
-5z m-44 -11 c-7 -2 -19 -2 -25 0 -7 3 -2 5 12 5 14 0 19 -2 13 -5z m-317 -33
c9 0 12 -4 9 -10 -3 -5 -13 -10 -21 -10 -9 0 -12 5 -8 12 5 8 2 9 -11 4 -16
-6 -16 -4 -4 10 8 10 15 12 17 5 2 -6 10 -11 18 -11z m79 10 c-3 -5 -14 -10
-23 -10 -15 0 -15 2 -2 10 20 13 33 13 25 0z m-144 -23 c-8 -8 -16 -7 -27 5
-14 14 -14 15 11 10 19 -3 23 -8 16 -15z m213 8 c4 -10 -1 -15 -16 -15 -17 0
-18 2 -8 15 7 8 14 15 15 15 2 0 5 -7 9 -15z m-44 -14 c3 -1 -16 -12 -41 -25
-37 -20 -52 -23 -82 -16 -20 4 -39 5 -43 1 -4 -3 -4 0 1 7 4 8 17 12 31 9 13
-2 24 0 24 5 0 5 9 4 20 -2 11 -6 21 -8 21 -5 2 8 6 25 8 29 1 4 16 3 61 -3z
m-178 -18 c-6 -2 -10 -8 -7 -13 3 -4 -3 -14 -12 -21 -15 -12 -16 -12 -8 1 6 8
10 18 11 23 1 4 2 9 3 12 0 3 7 5 14 4 9 0 9 -2 -1 -6z m-187 -43 c-3 -5 -14
-10 -23 -10 -14 0 -15 -2 -2 -10 22 -14 -13 -24 -46 -13 l-27 9 34 17 c38 18
74 22 64 7z m255 6 c0 -2 -9 -6 -20 -9 -11 -3 -20 -1 -20 4 0 5 9 9 20 9 11 0
20 -2 20 -4z m-117 -25 c5 -1 5 -5 2 -11 -3 -5 -21 -10 -40 -10 -22 0 -37 -6
-44 -17 -5 -10 -13 -14 -18 -10 -13 13 42 54 68 51 13 -1 28 -3 32 -3z m-2216
-57 c-3 -3 -12 -4 -19 -1 -8 3 -5 6 6 6 11 1 17 -2 13 -5z m8303 2 c0 -2 -9
-6 -20 -9 -11 -3 -18 -1 -14 4 5 9 34 13 34 5z m-8412 -13 c-10 -2 -28 -2 -40
0 -13 2 -5 4 17 4 22 1 32 -1 23 -4z m9465 -60 c-13 -2 -33 -2 -45 0 -13 2 -3
4 22 4 25 0 35 -2 23 -4z m-1793 -383 c0 13 77 13 85 0 4 -6 -6 -10 -22 -10
-40 0 -279 -29 -337 -40 -37 -8 -51 -7 -57 1 -5 9 -39 10 -123 6 -69 -4 -116
-3 -116 2 0 12 87 20 290 27 91 2 183 8 205 13 22 4 48 4 58 -1 10 -5 17 -5
17 2z m-580 -50 c0 -5 -10 -10 -22 -10 -19 0 -20 2 -8 10 19 13 30 13 30 0z
m-3822 -15 c50 -4 92 -12 92 -17 0 -10 -319 -8 -325 2 -3 4 -16 5 -30 3 -30
-6 -95 5 -95 16 0 9 225 7 358 -4z m3765 8 c-7 -2 -19 -2 -25 0 -7 3 -2 5 12
5 14 0 19 -2 13 -5z m150 -10 c-7 -2 -19 -2 -25 0 -7 3 -2 5 12 5 14 0 19 -2
13 -5z m60 0 c-7 -2 -21 -2 -30 0 -10 3 -4 5 12 5 17 0 24 -2 18 -5z m75 0
c-10 -2 -28 -2 -40 0 -13 2 -5 4 17 4 22 1 32 -1 23 -4z m-641 -29 c-3 -3 -12
-4 -19 -1 -8 3 -5 6 6 6 11 1 17 -2 13 -5z m202 -119 c2 -3 -30 -5 -72 -5 -43
0 -77 4 -77 8 0 8 140 5 149 -3z m-2205 -83 c-64 -63 -88 -80 -125 -88 l-46
-10 1 45 c1 45 2 46 55 72 30 15 61 25 68 22 7 -3 13 0 13 7 0 7 7 10 16 6 9
-3 24 0 34 7 10 7 28 13 41 14 18 2 6 -14 -57 -75z m-1644 58 c0 -12 -37 -14
-44 -2 -2 4 6 9 20 10 13 1 24 -3 24 -8z m67 4 c-3 -3 -12 -4 -19 -1 -8 3 -5
6 6 6 11 1 17 -2 13 -5z m336 -1 c-7 -2 -19 -2 -25 0 -7 3 -2 5 12 5 14 0 19
-2 13 -5z m50 0 c-7 -2 -19 -2 -25 0 -7 3 -2 5 12 5 14 0 19 -2 13 -5z m105
-10 c-10 -2 -26 -2 -35 0 -10 3 -2 5 17 5 19 0 27 -2 18 -5z m65 0 c-7 -2 -21
-2 -30 0 -10 3 -4 5 12 5 17 0 24 -2 18 -5z m70 0 c-7 -2 -21 -2 -30 0 -10 3
-4 5 12 5 17 0 24 -2 18 -5z m-847 -30 c-4 -4 -21 -8 -38 -9 -21 -1 -26 1 -17
7 17 11 65 12 55 2z m1602 -45 c-3 -7 -11 -13 -18 -13 -7 0 -15 -6 -18 -13 -3
-9 4 -11 25 -6 20 5 25 4 18 -5 -6 -6 -23 -12 -37 -13 -15 -1 -25 -6 -22 -10
3 -4 -9 -17 -26 -29 -16 -13 -30 -30 -30 -40 0 -10 -11 -19 -28 -22 -15 -3
-56 -25 -91 -49 -34 -24 -71 -48 -82 -54 -10 -6 -16 -14 -12 -17 3 -4 1 -7 -5
-7 -6 0 -12 10 -14 23 -2 13 -9 21 -18 19 -19 -4 52 60 109 98 24 16 48 27 53
24 5 -3 7 -1 6 4 -4 15 90 84 110 80 10 -1 29 7 42 20 26 24 44 29 38 10z
m2482 -13 c8 -9 9 -15 2 -15 -6 0 -13 4 -17 10 -3 5 -11 7 -18 5 -7 -2 -28 0
-47 4 -34 9 -34 9 16 10 35 1 56 -4 64 -14z m-2524 -73 c-18 -16 -18 -16 -6 6
6 13 14 21 18 18 3 -4 -2 -14 -12 -24z m-92 -87 c-4 -8 -11 -15 -16 -15 -6 0
-5 6 2 15 7 8 14 15 16 15 2 0 1 -7 -2 -15z m-244 -91 c0 -19 -4 -25 -15 -20
-8 3 -15 1 -15 -5 0 -6 -7 -17 -15 -25 -8 -9 -15 -12 -15 -8 0 4 -10 -2 -23
-14 -23 -22 -43 -20 -29 2 4 6 7 16 7 21 0 6 6 10 13 10 7 0 16 5 20 10 7 11
62 55 68 55 2 0 4 -12 4 -26z m-310 -227 c0 -2 -12 -14 -26 -28 l-27 -24 18
28 c14 22 35 36 35 24z m-95 -57 c-10 -11 -21 -18 -23 -15 -3 3 3 12 14 20 27
20 30 18 9 -5z"/>
<path d="M2160 9724 c0 -2 8 -14 19 -25 15 -16 20 -17 24 -6 3 9 -4 19 -19 26
-13 6 -24 8 -24 5z"/>
<path d="M4541 8474 c0 -11 3 -14 6 -6 3 7 2 16 -1 19 -3 4 -6 -2 -5 -13z"/>
<path d="M4451 1106 c-10 -12 -9 -14 5 -12 10 2 20 8 22 14 5 17 -13 15 -27
-2z"/>
<path d="M2010 9660 c0 -6 7 -10 15 -10 8 0 15 2 15 4 0 2 -7 6 -15 10 -8 3
-15 1 -15 -4z"/>
<path d="M3616 9097 c3 -10 9 -15 12 -12 3 3 0 11 -7 18 -10 9 -11 8 -5 -6z"/>
<path d="M570 8999 c0 -5 5 -7 10 -4 6 3 10 8 10 11 0 2 -4 4 -10 4 -5 0 -10
-5 -10 -11z"/>
<path d="M2364 8981 c4 -5 0 -12 -6 -14 -8 -3 -6 -6 5 -6 9 -1 17 6 17 14 0 8
-5 15 -11 15 -5 0 -8 -4 -5 -9z"/>
<path d="M2443 8975 c0 -8 4 -15 9 -15 4 0 8 7 8 15 0 8 -4 15 -8 15 -5 0 -9
-7 -9 -15z"/>
<path d="M2261 8944 c0 -34 -6 -59 -16 -66 -6 -5 -6 -8 1 -8 19 0 32 24 29 53
-4 33 -14 48 -14 21z"/>
<path d="M3530 3370 c0 -5 5 -10 10 -10 6 0 10 5 10 10 0 6 -4 10 -10 10 -5 0
-10 -4 -10 -10z"/>
<path d="M3150 3315 c0 -8 4 -15 10 -15 5 0 7 7 4 15 -4 8 -8 15 -10 15 -2 0
-4 -7 -4 -15z"/>
<path d="M2206 3237 c3 -10 9 -15 12 -12 3 3 0 11 -7 18 -10 9 -11 8 -5 -6z"/>
<path d="M2608 3063 c5 -21 7 -23 10 -9 2 10 0 22 -6 28 -6 6 -7 0 -4 -19z"/>
<path d="M8795 1980 c-3 -5 -2 -10 4 -10 5 0 13 5 16 10 3 6 2 10 -4 10 -5 0
-13 -4 -16 -10z"/>
<path d="M8905 1980 c-4 -6 3 -10 14 -10 25 0 27 6 6 13 -8 4 -17 2 -20 -3z"/>
</g>
</svg>
